# This file uses centimeters as units for non-parametric coordinates.

mtllib camp_fire.mtl
g default
v -0.703741 -0.073927 0.406305
v 0.703741 -0.073927 0.406305
v -0.000000 -0.073927 -0.812610
v 0.000000 -0.073927 0.812610
v 0.703741 -0.073927 -0.406305
v -0.703741 -0.073927 -0.406305
v -0.000000 0.210804 0.000000
v -0.812610 -0.049562 0.000000
v -0.406305 -0.049562 0.703741
v 0.000000 0.040758 0.406305
v -0.351870 0.040758 -0.203152
v -0.351870 0.040758 0.203153
v 0.406305 -0.049562 0.703741
v 0.812610 -0.049562 -0.000000
v 0.351870 0.040758 -0.203153
v 0.351870 0.040758 0.203152
v 0.406305 -0.049562 -0.703741
v -0.406305 -0.049562 -0.703741
v -0.000000 0.040758 -0.406305
vt 0.066987 0.250000
vt 0.933013 0.250000
vt 0.500000 1.000000
vt 0.500000 0.000000
vt 0.933013 0.750000
vt 0.066987 0.750000
vt 0.500000 0.500000
vt 0.000000 0.500000
vt 0.250000 0.066987
vt 0.500000 0.250000
vt 0.283494 0.625000
vt 0.283494 0.375000
vt 0.750000 0.066987
vt 1.000000 0.500000
vt 0.716506 0.625000
vt 0.716506 0.375000
vt 0.750000 0.933013
vt 0.250000 0.933013
vt 0.500000 0.750000
vn -0.184886 0.976946 -0.106744
vn -0.188079 0.976133 -0.108588
vn -0.223888 0.974591 0.006844
vn -0.229011 0.964403 0.132219
vn -0.235256 0.962396 0.135825
vn -0.117871 0.974591 0.190470
vn 0.000000 0.976133 0.217175
vn 0.000000 0.976946 0.213488
vn 0.000000 1.000000 0.000000
vn 0.117871 0.974591 0.190470
vn 0.229011 0.964403 0.132219
vn 0.235256 0.962396 0.135825
vn 0.223888 0.974591 0.006844
vn 0.188079 0.976133 -0.108588
vn 0.184886 0.976946 -0.106744
vn 0.106017 0.974591 -0.197315
vn -0.000000 0.964403 -0.264439
vn -0.000000 0.962396 -0.271650
vn -0.106017 0.974591 -0.197315
s 1
g pDisc1
usemtl initialShadingGroup
f 11/11/1 6/6/2 8/8/3 12/12/4
f 8/8/3 1/1/5 9/9/6 12/12/4
f 9/9/6 4/4/7 10/10/8 12/12/4
f 10/10/8 7/7/9 11/11/1 12/12/4
f 10/10/8 4/4/7 13/13/10 16/16/11
f 13/13/10 2/2/12 14/14/13 16/16/11
f 14/14/13 5/5/14 15/15/15 16/16/11
f 15/15/15 7/7/9 10/10/8 16/16/11
f 15/15/15 5/5/14 17/17/16 19/19/17
f 17/17/16 3/3/18 18/18/19 19/19/17
f 18/18/19 6/6/2 11/11/1 19/19/17
f 11/11/1 7/7/9 15/15/15 19/19/17
g default
v 0.483922 -0.130916 0.074661
v 0.513556 -0.099188 0.182869
v 0.598314 -0.020875 0.199508
v 0.653438 0.025711 0.107939
v 0.623805 -0.006017 -0.000269
v 0.539047 -0.084331 -0.016908
v -0.008586 0.406976 0.051820
v 0.021047 0.438704 0.160028
v 0.105805 0.517017 0.176667
v 0.160930 0.563603 0.085098
v 0.131296 0.531874 -0.023110
v 0.046538 0.453561 -0.039749
v 0.568680 -0.052603 0.091300
v 0.076172 0.485289 0.068459
v -0.366379 -0.057031 -0.425060
v -0.267375 -0.077363 -0.483185
v -0.233917 -0.005155 -0.568392
v -0.299465 0.087385 -0.595475
v -0.398469 0.107718 -0.537351
v -0.431927 0.035510 -0.452144
v 0.001135 0.345301 0.060198
v 0.100140 0.324969 0.002074
v 0.133597 0.397177 -0.083134
v 0.068050 0.489718 -0.110217
v -0.030955 0.510050 -0.052093
v -0.064412 0.437842 0.033115
v -0.332922 0.015177 -0.510268
v 0.034593 0.417509 -0.025010
v 0.057150 -0.058285 -0.301834
v 0.169997 -0.083497 -0.316787
v 0.246317 0.001767 -0.339124
v 0.209791 0.112243 -0.346508
v 0.096943 0.137455 -0.331555
v 0.020623 0.052191 -0.309218
v 0.171079 0.027216 0.413795
v 0.283926 0.002004 0.398842
v 0.360246 0.087268 0.376504
v 0.323719 0.197744 0.369120
v 0.210872 0.222956 0.384073
v 0.134552 0.137692 0.406410
v 0.133470 0.026979 -0.324171
v 0.247399 0.112480 0.391457
v -0.600437 -0.040547 0.005226
v -0.586352 -0.057619 -0.109246
v -0.598269 0.031569 -0.183389
v -0.624270 0.137829 -0.143060
v -0.638354 0.154901 -0.028587
v -0.626438 0.065713 0.045555
v 0.110812 0.108724 0.070475
v 0.124896 0.091652 -0.043997
v 0.112980 0.180841 -0.118140
v 0.086979 0.287101 -0.077810
v 0.072895 0.304172 0.036662
v 0.084811 0.214984 0.110805
v -0.612353 0.048641 -0.068917
v 0.098895 0.197912 -0.003668
v -0.091140 -0.147349 0.601459
v -0.204033 -0.118564 0.596946
v -0.242423 -0.024131 0.653536
v -0.167920 0.041515 0.714640
v -0.055028 0.012730 0.719152
v -0.016638 -0.081703 0.662562
v 0.036239 0.259360 0.009195
v -0.076653 0.288146 0.004683
v -0.115043 0.382578 0.061273
v -0.040541 0.448225 0.122376
v 0.072352 0.419439 0.126889
v 0.110742 0.325007 0.070299
v -0.129530 -0.052917 0.658049
v -0.002151 0.353792 0.065786
vt 0.578125 0.020934
vt 0.421875 0.020934
vt 0.343750 0.156250
vt 0.421875 0.291566
vt 0.578125 0.291566
vt 0.656250 0.156250
vt 0.375000 0.312500
vt 0.416667 0.312500
vt 0.458333 0.312500
vt 0.500000 0.312500
vt 0.541667 0.312500
vt 0.583333 0.312500
vt 0.625000 0.312500
vt 0.375000 0.688440
vt 0.416667 0.688440
vt 0.458333 0.688440
vt 0.500000 0.688440
vt 0.541667 0.688440
vt 0.583333 0.688440
vt 0.625000 0.688440
vt 0.578125 0.708434
vt 0.421875 0.708434
vt 0.343750 0.843750
vt 0.421875 0.979066
vt 0.578125 0.979066
vt 0.656250 0.843750
vt 0.500000 0.150000
vt 0.500000 0.837500
vt 0.375000 0.312500
vt 0.416667 0.312500
vt 0.416667 0.688440
vt 0.375000 0.688440
vt 0.458333 0.312500
vt 0.458333 0.688440
vt 0.500000 0.312500
vt 0.500000 0.688440
vt 0.541667 0.312500
vt 0.541667 0.688440
vt 0.583333 0.312500
vt 0.583333 0.688440
vt 0.625000 0.312500
vt 0.625000 0.688440
vt 0.421875 0.020934
vt 0.578125 0.020934
vt 0.500000 0.150000
vt 0.343750 0.156250
vt 0.421875 0.291566
vt 0.578125 0.291566
vt 0.656250 0.156250
vt 0.578125 0.979066
vt 0.421875 0.979066
vt 0.500000 0.837500
vt 0.343750 0.843750
vt 0.421875 0.708434
vt 0.578125 0.708434
vt 0.656250 0.843750
vt 0.375000 0.312500
vt 0.416667 0.312500
vt 0.416667 0.688440
vt 0.375000 0.688440
vt 0.458333 0.312500
vt 0.458333 0.688440
vt 0.500000 0.312500
vt 0.500000 0.688440
vt 0.541667 0.312500
vt 0.541667 0.688440
vt 0.583333 0.312500
vt 0.583333 0.688440
vt 0.625000 0.312500
vt 0.625000 0.688440
vt 0.421875 0.020934
vt 0.578125 0.020934
vt 0.500000 0.150000
vt 0.343750 0.156250
vt 0.421875 0.291566
vt 0.578125 0.291566
vt 0.656250 0.156250
vt 0.578125 0.979066
vt 0.421875 0.979066
vt 0.500000 0.837500
vt 0.343750 0.843750
vt 0.421875 0.708434
vt 0.578125 0.708434
vt 0.656250 0.843750
vt 0.375000 0.312500
vt 0.416667 0.312500
vt 0.416667 0.688440
vt 0.375000 0.688440
vt 0.458333 0.312500
vt 0.458333 0.688440
vt 0.500000 0.312500
vt 0.500000 0.688440
vt 0.541667 0.312500
vt 0.541667 0.688440
vt 0.583333 0.312500
vt 0.583333 0.688440
vt 0.625000 0.312500
vt 0.625000 0.688440
vt 0.421875 0.020934
vt 0.578125 0.020934
vt 0.500000 0.150000
vt 0.343750 0.156250
vt 0.421875 0.291566
vt 0.578125 0.291566
vt 0.656250 0.156250
vt 0.578125 0.979066
vt 0.421875 0.979066
vt 0.500000 0.837500
vt 0.343750 0.843750
vt 0.421875 0.708434
vt 0.578125 0.708434
vt 0.656250 0.843750
vt 0.375000 0.312500
vt 0.416667 0.312500
vt 0.416667 0.688440
vt 0.375000 0.688440
vt 0.458333 0.312500
vt 0.458333 0.688440
vt 0.500000 0.312500
vt 0.500000 0.688440
vt 0.541667 0.312500
vt 0.541667 0.688440
vt 0.583333 0.312500
vt 0.583333 0.688440
vt 0.625000 0.312500
vt 0.625000 0.688440
vt 0.421875 0.020934
vt 0.578125 0.020934
vt 0.500000 0.150000
vt 0.343750 0.156250
vt 0.421875 0.291566
vt 0.578125 0.291566
vt 0.656250 0.156250
vt 0.578125 0.979066
vt 0.421875 0.979066
vt 0.500000 0.837500
vt 0.343750 0.843750
vt 0.421875 0.708434
vt 0.578125 0.708434
vt 0.656250 0.843750
vn -0.692681 -0.618482 0.371043
vn -0.692681 -0.618482 0.371043
vn -0.692681 -0.618482 0.371043
vn -0.692681 -0.618482 0.371043
vn -0.126229 -0.073571 0.989269
vn -0.126229 -0.073571 0.989269
vn -0.126229 -0.073571 0.989269
vn -0.126229 -0.073571 0.989269
vn 0.566452 0.544911 0.618226
vn 0.566452 0.544911 0.618226
vn 0.566452 0.544911 0.618226
vn 0.566452 0.544911 0.618226
vn 0.692681 0.618482 -0.371043
vn 0.692681 0.618482 -0.371043
vn 0.692681 0.618482 -0.371043
vn 0.692681 0.618482 -0.371043
vn 0.126229 0.073571 -0.989269
vn 0.126229 0.073571 -0.989269
vn 0.126229 0.073571 -0.989269
vn 0.126229 0.073571 -0.989269
vn -0.566452 -0.544911 -0.618226
vn -0.566452 -0.544911 -0.618226
vn -0.566452 -0.544911 -0.618226
vn -0.566452 -0.544911 -0.618226
vn 0.674977 -0.737174 0.031303
vn 0.674977 -0.737174 0.031303
vn 0.674977 -0.737174 0.031303
vn 0.674977 -0.737175 0.031303
vn 0.674977 -0.737174 0.031303
vn 0.674977 -0.737174 0.031303
vn 0.674977 -0.737174 0.031303
vn -0.674977 0.737174 -0.031303
vn -0.674977 0.737174 -0.031304
vn -0.674977 0.737174 -0.031303
vn -0.674977 0.737174 -0.031303
vn -0.674977 0.737174 -0.031303
vn -0.674977 0.737174 -0.031303
vn -0.674977 0.737174 -0.031303
vn 0.158906 -0.815816 0.556051
vn 0.158906 -0.815816 0.556051
vn 0.158906 -0.815816 0.556051
vn 0.158906 -0.815816 0.556051
vn 0.814841 -0.558934 -0.153710
vn 0.814841 -0.558934 -0.153710
vn 0.814841 -0.558934 -0.153710
vn 0.814841 -0.558934 -0.153710
vn 0.655935 0.256882 -0.709761
vn 0.655935 0.256882 -0.709761
vn 0.655935 0.256882 -0.709761
vn 0.655935 0.256882 -0.709761
vn -0.158906 0.815816 -0.556052
vn -0.158906 0.815816 -0.556052
vn -0.158906 0.815816 -0.556052
vn -0.158906 0.815816 -0.556052
vn -0.814841 0.558934 0.153710
vn -0.814841 0.558934 0.153710
vn -0.814841 0.558934 0.153710
vn -0.814841 0.558934 0.153710
vn -0.655935 -0.256882 0.709761
vn -0.655935 -0.256882 0.709761
vn -0.655935 -0.256882 0.709761
vn -0.655935 -0.256882 0.709761
vn -0.503674 -0.551392 -0.665041
vn -0.503675 -0.551392 -0.665041
vn -0.503675 -0.551392 -0.665041
vn -0.503674 -0.551392 -0.665041
vn -0.503674 -0.551392 -0.665041
vn -0.503675 -0.551391 -0.665041
vn -0.503675 -0.551391 -0.665041
vn 0.503675 0.551392 0.665041
vn 0.503675 0.551392 0.665041
vn 0.503675 0.551392 0.665041
vn 0.503675 0.551392 0.665041
vn 0.503674 0.551391 0.665041
vn 0.503675 0.551392 0.665041
vn 0.503675 0.551392 0.665041
vn -0.197053 -0.969283 0.147178
vn -0.197053 -0.969283 0.147178
vn -0.197053 -0.969283 0.147178
vn -0.197053 -0.969283 0.147178
vn 0.739682 -0.671912 -0.037480
vn 0.739682 -0.671912 -0.037480
vn 0.739682 -0.671912 -0.037480
vn 0.739682 -0.671912 -0.037480
vn 0.936735 0.297371 -0.184658
vn 0.936735 0.297371 -0.184658
vn 0.936735 0.297371 -0.184658
vn 0.936735 0.297371 -0.184658
vn 0.197053 0.969283 -0.147178
vn 0.197053 0.969283 -0.147178
vn 0.197053 0.969283 -0.147178
vn 0.197053 0.969283 -0.147178
vn -0.739682 0.671912 0.037480
vn -0.739682 0.671912 0.037480
vn -0.739682 0.671912 0.037480
vn -0.739682 0.671912 0.037480
vn -0.936735 -0.297371 0.184658
vn -0.936735 -0.297371 0.184658
vn -0.936735 -0.297371 0.184658
vn -0.936735 -0.297371 0.184658
vn -0.156138 -0.117178 -0.980760
vn -0.156138 -0.117178 -0.980760
vn -0.156138 -0.117178 -0.980760
vn -0.156138 -0.117178 -0.980760
vn -0.156138 -0.117178 -0.980760
vn -0.156138 -0.117178 -0.980760
vn -0.156138 -0.117178 -0.980760
vn 0.156138 0.117178 0.980760
vn 0.156138 0.117178 0.980760
vn 0.156138 0.117178 0.980760
vn 0.156138 0.117178 0.980760
vn 0.156138 0.117178 0.980760
vn 0.156138 0.117178 0.980760
vn 0.156138 0.117178 0.980760
vn 0.187762 -0.967838 0.167439
vn 0.187762 -0.967838 0.167439
vn 0.187762 -0.967838 0.167439
vn 0.187762 -0.967838 0.167439
vn 0.198498 -0.610724 -0.766560
vn 0.198498 -0.610724 -0.766560
vn 0.198497 -0.610724 -0.766560
vn 0.198497 -0.610724 -0.766560
vn 0.010736 0.357113 -0.933999
vn 0.010736 0.357113 -0.933999
vn 0.010736 0.357113 -0.933999
vn 0.010736 0.357113 -0.933999
vn -0.187762 0.967838 -0.167439
vn -0.187762 0.967838 -0.167439
vn -0.187762 0.967838 -0.167439
vn -0.187762 0.967838 -0.167439
vn -0.198497 0.610724 0.766560
vn -0.198497 0.610724 0.766560
vn -0.198497 0.610724 0.766560
vn -0.198497 0.610724 0.766560
vn -0.010736 -0.357113 0.933999
vn -0.010736 -0.357113 0.933999
vn -0.010736 -0.357113 0.933999
vn -0.010736 -0.357113 0.933999
vn -0.974758 -0.204575 -0.089423
vn -0.974758 -0.204575 -0.089423
vn -0.974758 -0.204575 -0.089423
vn -0.974758 -0.204575 -0.089423
vn -0.974758 -0.204574 -0.089423
vn -0.974758 -0.204576 -0.089423
vn -0.974758 -0.204576 -0.089423
vn 0.974758 0.204575 0.089423
vn 0.974758 0.204575 0.089423
vn 0.974758 0.204575 0.089423
vn 0.974758 0.204575 0.089423
vn 0.974758 0.204575 0.089423
vn 0.974758 0.204575 0.089423
vn 0.974758 0.204575 0.089423
vn -0.178825 -0.792692 -0.582805
vn -0.178825 -0.792692 -0.582805
vn -0.178825 -0.792692 -0.582805
vn -0.178825 -0.792692 -0.582805
vn -0.927959 -0.182531 -0.324923
vn -0.927959 -0.182531 -0.324923
vn -0.927959 -0.182531 -0.324923
vn -0.927959 -0.182531 -0.324923
vn -0.749134 0.610161 0.257882
vn -0.749134 0.610161 0.257882
vn -0.749134 0.610161 0.257882
vn -0.749134 0.610161 0.257882
vn 0.178825 0.792692 0.582805
vn 0.178825 0.792692 0.582805
vn 0.178825 0.792692 0.582805
vn 0.178825 0.792692 0.582805
vn 0.927959 0.182531 0.324923
vn 0.927959 0.182531 0.324923
vn 0.927959 0.182531 0.324923
vn 0.927959 0.182531 0.324923
vn 0.749134 -0.610161 -0.257882
vn 0.749134 -0.610161 -0.257882
vn 0.749134 -0.610161 -0.257882
vn 0.749134 -0.610161 -0.257882
vn -0.174572 -0.557391 0.811690
vn -0.174572 -0.557391 0.811690
vn -0.174572 -0.557391 0.811690
vn -0.174572 -0.557391 0.811690
vn -0.174572 -0.557390 0.811690
vn -0.174572 -0.557391 0.811690
vn -0.174572 -0.557391 0.811690
vn 0.174572 0.557391 -0.811690
vn 0.174572 0.557391 -0.811690
vn 0.174572 0.557390 -0.811690
vn 0.174572 0.557391 -0.811690
vn 0.174572 0.557391 -0.811690
vn 0.174572 0.557390 -0.811690
vn 0.174572 0.557390 -0.811690
s off
g pCylinder6
usemtl initialShadingGroup
f 20/26/20 21/27/21 27/34/22 26/33/23
f 21/27/24 22/28/25 28/35/26 27/34/27
f 22/28/28 23/29/29 29/36/30 28/35/31
f 23/29/32 24/30/33 30/37/34 29/36/35
f 24/30/36 25/31/37 31/38/38 30/37/39
f 25/31/40 20/32/41 26/39/42 31/38/43
s 1
f 21/21/44 20/20/45 32/46/46
f 22/22/47 21/21/44 32/46/46
f 23/23/48 22/22/47 32/46/46
f 24/24/49 23/23/48 32/46/46
f 25/25/50 24/24/49 32/46/46
f 20/20/45 25/25/50 32/46/46
s 2
f 26/44/51 27/43/52 33/47/53
f 27/43/52 28/42/54 33/47/53
f 28/42/54 29/41/55 33/47/53
f 29/41/55 30/40/56 33/47/53
f 30/40/56 31/45/57 33/47/53
f 31/45/57 26/44/51 33/47/53
s off
f 34/48/58 35/49/59 41/50/60 40/51/61
f 35/49/62 36/52/63 42/53/64 41/50/65
f 36/52/66 37/54/67 43/55/68 42/53/69
f 37/54/70 38/56/71 44/57/72 43/55/73
f 38/56/74 39/58/75 45/59/76 44/57/77
f 39/58/78 34/60/79 40/61/80 45/59/81
s 3
f 35/62/82 34/63/83 46/64/84
f 36/65/85 35/62/82 46/64/84
f 37/66/86 36/65/85 46/64/84
f 38/67/87 37/66/86 46/64/84
f 39/68/88 38/67/87 46/64/84
f 34/63/83 39/68/88 46/64/84
s 4
f 40/69/89 41/70/90 47/71/91
f 41/70/90 42/72/92 47/71/91
f 42/72/92 43/73/93 47/71/91
f 43/73/93 44/74/94 47/71/91
f 44/74/94 45/75/95 47/71/91
f 45/75/95 40/69/89 47/71/91
s off
f 48/76/96 49/77/97 55/78/98 54/79/99
f 49/77/100 50/80/101 56/81/102 55/78/103
f 50/80/104 51/82/105 57/83/106 56/81/107
f 51/82/108 52/84/109 58/85/110 57/83/111
f 52/84/112 53/86/113 59/87/114 58/85/115
f 53/86/116 48/88/117 54/89/118 59/87/119
s 5
f 49/90/120 48/91/121 60/92/122
f 50/93/123 49/90/120 60/92/122
f 51/94/124 50/93/123 60/92/122
f 52/95/125 51/94/124 60/92/122
f 53/96/126 52/95/125 60/92/122
f 48/91/121 53/96/126 60/92/122
s 6
f 54/97/127 55/98/128 61/99/129
f 55/98/128 56/100/130 61/99/129
f 56/100/130 57/101/131 61/99/129
f 57/101/131 58/102/132 61/99/129
f 58/102/132 59/103/133 61/99/129
f 59/103/133 54/97/127 61/99/129
s off
f 62/104/134 63/105/135 69/106/136 68/107/137
f 63/105/138 64/108/139 70/109/140 69/106/141
f 64/108/142 65/110/143 71/111/144 70/109/145
f 65/110/146 66/112/147 72/113/148 71/111/149
f 66/112/150 67/114/151 73/115/152 72/113/153
f 67/114/154 62/116/155 68/117/156 73/115/157
s 7
f 63/118/158 62/119/159 74/120/160
f 64/121/161 63/118/158 74/120/160
f 65/122/162 64/121/161 74/120/160
f 66/123/163 65/122/162 74/120/160
f 67/124/164 66/123/163 74/120/160
f 62/119/159 67/124/164 74/120/160
s 8
f 68/125/165 69/126/166 75/127/167
f 69/126/166 70/128/168 75/127/167
f 70/128/168 71/129/169 75/127/167
f 71/129/169 72/130/170 75/127/167
f 72/130/170 73/131/171 75/127/167
f 73/131/171 68/125/165 75/127/167
s off
f 76/132/172 77/133/173 83/134/174 82/135/175
f 77/133/176 78/136/177 84/137/178 83/134/179
f 78/136/180 79/138/181 85/139/182 84/137/183
f 79/138/184 80/140/185 86/141/186 85/139/187
f 80/140/188 81/142/189 87/143/190 86/141/191
f 81/142/192 76/144/193 82/145/194 87/143/195
s 9
f 77/146/196 76/147/197 88/148/198
f 78/149/199 77/146/196 88/148/198
f 79/150/200 78/149/199 88/148/198
f 80/151/201 79/150/200 88/148/198
f 81/152/202 80/151/201 88/148/198
f 76/147/197 81/152/202 88/148/198
s 10
f 82/153/203 83/154/204 89/155/205
f 83/154/204 84/156/206 89/155/205
f 84/156/206 85/157/207 89/155/205
f 85/157/207 86/158/208 89/155/205
f 86/158/208 87/159/209 89/155/205
f 87/159/209 82/153/203 89/155/205
